<?xml version="1.0" encoding="UTF-8" standalone="no"?>
<!-- Created with Inkscape (http://www.inkscape.org/) -->

<svg
   width="512"
   height="512"
   viewBox="0 0 135.46669 135.46669"
   version="1.1"
   id="svg1"
   xml:space="preserve"
   inkscape:export-filename="blencat72.png"
   inkscape:export-xdpi="13.5"
   inkscape:export-ydpi="13.5"
   inkscape:version="1.4 (e7c3feb100, 2024-10-09)"
   sodipodi:docname="blencat.svg"
   xmlns:inkscape="http://www.inkscape.org/namespaces/inkscape"
   xmlns:sodipodi="http://sodipodi.sourceforge.net/DTD/sodipodi-0.dtd"
   xmlns="http://www.w3.org/2000/svg"
   xmlns:svg="http://www.w3.org/2000/svg"><sodipodi:namedview
     id="namedview1"
     pagecolor="#ffffff"
     bordercolor="#000000"
     borderopacity="0.25"
     inkscape:showpageshadow="2"
     inkscape:pageopacity="0.0"
     inkscape:pagecheckerboard="0"
     inkscape:deskcolor="#d1d1d1"
     inkscape:document-units="mm"
     inkscape:zoom="1"
     inkscape:cx="-397"
     inkscape:cy="365"
     inkscape:window-width="2560"
     inkscape:window-height="1029"
     inkscape:window-x="0"
     inkscape:window-y="0"
     inkscape:window-maximized="1"
     inkscape:current-layer="g14459" /><defs
     id="defs1" /><g
     inkscape:label="Layer 1"
     inkscape:groupmode="layer"
     id="layer1"><g
       id="g14459"><path
         style="fill:#ffffff;stroke-width:14.3698"
         d="m 72.251153,124.74433 c 6.090126,-0.2999 13.754946,-1.34199 17.032947,-2.31578 3.277995,-0.97383 8.525445,-3.39783 11.661,-5.38675 3.13556,-1.98893 6.67696,-5.10573 7.8698,-6.92622 1.31022,-1.99961 2.78454,-8.17089 3.72421,-15.588423 0.85542,-6.753143 1.90319,-16.253061 2.32824,-21.11093 0.59562,-6.807047 0.30047,-10.06948 -1.28725,-14.22672 -1.13305,-2.966834 -4.25989,-7.594065 -6.94857,-10.282731 C 103.94288,46.218109 98.484745,42.390095 94.50237,40.400087 90.520009,38.410064 84.13036,36.131094 80.303165,35.3357 76.372696,34.51878 69.109206,34.16471 63.611528,34.521798 c -5.63771,0.366285 -12.724624,1.764332 -16.842734,3.322645 -3.910309,1.479667 -9.93267,4.984361 -13.383032,7.78823 -3.450363,2.803853 -8.082249,8.083326 -10.293092,11.732161 -3.640647,6.008639 -3.967645,7.322637 -3.46765,13.934085 0.303634,4.014909 1.225596,12.227215 2.04894,18.249578 0.823242,6.022364 1.987493,12.977933 2.587158,15.456833 0.599649,2.47888 2.469741,6.14645 4.155744,8.15014 1.686002,2.00369 5.914617,5.03164 9.396951,6.72876 3.482322,1.69713 10.163908,3.6076 14.84797,4.24549 4.684063,0.63787 13.499287,0.91449 19.589413,0.61459 z"
         id="path14465" /><path
         id="path14461-2"
         style="fill:#e67e1b;stroke-width:14.3698"
         d="M 18.247465,4.35684 C 15.937845,4.2759496 13.818101,5.0986676 12.350151,7.4920492 10.968861,10.851782 10.0604,14.494274 9.5058797,18.234029 6.9637197,35.376445 11.859631,54.557784 12.760461,57.867786 5.3224312,76.519371 5.190619,114.76863 38.20697,126.38815 c 5.123447,2.27853 16.080122,5.28246 29.435413,5.27461 1.550749,0 17.85566,-0.12433 29.436446,-5.27461 33.016351,-11.61952 32.884541,-49.868779 25.446511,-68.520364 0.90083,-3.310002 5.79674,-22.491341 3.25458,-39.633757 C 125.2254,14.494274 124.31694,10.851782 122.93565,7.4920492 121.4677,5.0986676 119.34795,4.2759496 117.03833,4.35684 113.18897,4.4916573 108.81168,7.1362852 106.04417,9.2015055 98.914183,14.140559 93.998973,21.499314 87.519206,27.102738 83.287404,27.344305 76.917207,26.169638 67.643416,26.110551 60.452406,26.070378 51.830108,27.334698 47.766593,27.102738 41.286823,21.499314 36.371616,14.140559 29.241626,9.2015055 26.474116,7.1362852 22.096825,4.4916573 18.247465,4.35684 Z"
         sodipodi:nodetypes="sccccsccccsccsccs" /><path
         id="path14471"
         style="fill:#ffffff;stroke-width:15.869"
         d="m 67.749726,34.43946 c -4.853883,-0.0087 -12.108505,0.958463 -16.122175,2.148535 -4.013687,1.189959 -9.550177,3.306177 -12.300748,4.707084 -2.750556,1.400905 -7.165545,4.454693 -9.815986,6.781815 -2.650472,2.327123 -6.0582,6.657461 -7.569077,9.619178 -2.324507,4.556476 -2.607605,6.843751 -1.869705,14.90032 0.479518,5.236817 1.167542,11.944432 1.533567,14.900288 0.366286,2.955866 1.109776,9.041922 1.648311,13.53082 0.538722,4.4889 2.005068,9.74006 3.263801,11.66109 1.258645,1.92107 6.088072,5.33299 10.726238,7.58548 4.638166,2.25246 12.360366,4.71595 17.16364,5.46973 4.03557,0.63313 9.478971,1.09196 13.342222,1.18077 3.863236,-0.0891 9.30662,-0.54764 13.342196,-1.18077 4.803269,-0.75384 12.525475,-3.21727 17.163636,-5.46973 4.638174,-2.25249 9.467534,-5.66441 10.726254,-7.58548 1.25879,-1.92103 2.72505,-7.17219 3.26379,-11.66109 0.53873,-4.488898 1.28207,-10.574954 1.64831,-13.53082 0.36615,-2.955856 1.05388,-9.663471 1.53341,-14.900288 0.7379,-8.056569 0.45482,-10.343844 -1.86969,-14.90032 -1.51089,-2.961717 -4.91859,-7.292055 -7.56907,-9.619178 -2.65043,-2.327122 -7.065428,-5.38091 -9.815987,-6.781815 C 93.422096,39.894172 87.885595,37.777997 83.871905,36.587995 79.858235,35.397979 72.603628,34.430708 67.749726,34.43946 Z"
         sodipodi:nodetypes="csssssccssccsssscsssssc" /><path
         style="fill:#ffffff;stroke-width:14.3698"
         d="m 35.828374,28.781287 c -0.479806,-1.852678 -1.740405,-3.37245 -2.797819,-4.928924 -2.494816,-3.295198 -5.3795,-6.303145 -8.54208,-8.960901 -1.28178,-0.97355 -3.258281,-3.097125 -4.924942,-3.193762 -1.690586,0.05174 -2.45362,2.5259 -2.691842,4.144666 -0.898683,3.383658 -0.732137,6.919822 -0.938919,10.384526 -0.08765,5.398785 0.0036,10.93174 1.69997,16.10972 0.417728,1.218124 1.678228,2.581093 3.068184,1.965336 3.381733,-0.974843 6.175125,-3.294897 8.735599,-5.619376 2.41383,-2.357831 4.81727,-4.914567 6.118738,-8.077463 0.205775,-0.579963 0.368008,-1.204903 0.273025,-1.823822 z"
         id="path14469"
         sodipodi:nodetypes="cccccccccccc" /><path
         id="path14460-0"
         style="fill:#1e5688;stroke-width:13.6434"
         d="m 67.749726,40.9248 c -4.17314,-0.0076 -10.410329,0.824059 -13.861109,1.847203 -3.450776,1.023117 -8.2108,2.842502 -10.575605,4.04694 -2.364807,1.204436 -6.160613,3.829939 -8.439343,5.830684 -2.278744,2.000762 -5.208549,5.723782 -6.507535,8.270142 -1.998508,3.91743 -2.241907,5.883935 -1.60749,12.810595 0.412302,4.502387 1.003743,10.269271 1.318496,12.810583 0.314889,2.541313 0.954081,7.773836 1.417138,11.633174 0.463192,3.859359 1.723868,8.374059 2.80606,10.025679 1.082192,1.65165 5.234253,4.58505 9.221926,6.52164 3.987684,1.93657 10.626879,4.05456 14.75651,4.70261 3.469593,0.54438 8.149585,0.93881 11.471023,1.01521 3.32144,-0.0764 8.001414,-0.47083 11.471007,-1.01521 4.129634,-0.64805 10.768827,-2.76604 14.756515,-4.70261 3.987669,-1.93659 8.139751,-4.86999 9.221931,-6.52164 1.08219,-1.65162 2.34287,-6.16632 2.80607,-10.025679 0.46318,-3.859338 1.10225,-9.091861 1.41712,-11.633174 0.31477,-2.541312 0.90607,-8.308196 1.31837,-12.810583 0.63442,-6.92666 0.39102,-8.893165 -1.60749,-12.810595 -1.29899,-2.54636 -4.22877,-6.26938 -6.50751,-8.270142 C 98.347071,50.648882 94.551269,48.023379 92.186454,46.818943 89.821655,45.614505 85.061615,43.79512 81.610841,42.772003 78.16006,41.748887 71.922884,40.917269 67.749726,40.9248 Z"
         sodipodi:nodetypes="csssssccssccsssscsssssc" /><path
         id="path14459-1"
         style="fill:#000000;stroke-width:13.6434"
         d="m 67.763837,86.012166 c -1.874233,-0.0073 -3.745787,0.221839 -5.428824,1.071693 -1.245912,0.609173 -1.272517,2.247688 -0.528817,3.257293 1.047948,1.773008 3.089377,2.804255 3.729662,4.850678 0.960632,2.289068 -0.791313,4.9359 -3.095135,5.47114 -2.375217,0.68611 -5.076141,0.30832 -7.015152,-1.283176 -1.217807,-0.777945 -2.056834,-2.096847 -3.405344,-2.657999 -1.590886,0.136434 -0.497984,2.47222 0.03548,3.327785 0.858577,1.06297 2.042877,1.85613 3.236127,2.51701 2.132159,1.09365 4.667315,1.60957 7.022217,1.03635 2.034785,-0.75557 3.559217,-2.37604 5.407663,-3.4547 0.01258,5.8e-4 0.02321,0.006 0.0355,0.008 v 0.008 c 0.01498,-5.9e-4 0.02727,-0.007 0.04232,-0.008 1.848447,1.07865 3.372884,2.69914 5.407671,3.45471 2.354907,0.57316 4.890047,0.0572 7.022206,-1.03635 1.193252,-0.66089 2.377567,-1.45404 3.236143,-2.51701 0.533181,-0.85557 1.62614,-3.191356 0.0355,-3.32779 -1.348511,0.561152 -2.187553,1.880054 -3.405359,2.657999 -1.939014,1.591501 -4.639936,1.969311 -7.015152,1.283161 -2.303766,-0.53523 -4.055764,-3.182047 -3.095138,-5.471107 0.640286,-2.046423 2.681731,-3.077688 3.729681,-4.850686 0.743698,-1.009615 0.717094,-2.648121 -0.528821,-3.257293 -1.68093,-0.848752 -3.54988,-1.078777 -5.42175,-1.071685 z" /><ellipse
         style="fill:#000000;stroke-width:3.6098"
         id="path14464"
         cx="105.80529"
         cy="59.67543"
         rx="6.5009522"
         ry="8.016511"
         transform="rotate(12.486488)" /><ellipse
         style="fill:#000000;stroke-width:3.6098"
         id="path14464-0"
         cx="-26.216375"
         cy="89.482216"
         rx="6.5009518"
         ry="8.016511"
         transform="matrix(-0.97634702,0.21620937,0.21620937,0.97634702,0,0)" /><path
         style="fill:#ffffff;stroke-width:14.3698"
         d="m 99.225413,28.781287 c 0.4798,-1.852678 1.740387,-3.37245 2.797807,-4.928924 2.49482,-3.295198 5.3795,-6.303145 8.54208,-8.960901 1.28178,-0.97355 3.25829,-3.097125 4.92494,-3.193762 1.69058,0.05174 2.45362,2.5259 2.69184,4.144666 0.89869,3.383658 0.73214,6.919822 0.93892,10.384526 0.0877,5.398785 -0.004,10.93174 -1.69996,16.10972 -0.41773,1.218124 -1.67823,2.581093 -3.06819,1.965336 -3.38174,-0.974843 -6.17512,-3.294897 -8.7356,-5.619376 -2.41382,-2.357831 -4.81727,-4.914567 -6.118728,-8.077463 -0.205778,-0.579963 -0.368025,-1.204903 -0.273032,-1.823822 z"
         id="path14472"
         sodipodi:nodetypes="cccccccccccc" /><path
         id="path14474"
         style="fill:#3579bc;stroke-width:0.224145"
         d="m 61.67816,41.343158 c -2.905216,0.338532 -5.804819,0.840317 -7.789442,1.428751 -0.951568,0.282129 -2.003328,0.63022 -3.076329,1.003855 0.610182,1.378831 1.692138,3.057504 2.746127,5.908319 2.95247,7.985808 -0.836512,12.795762 4.431974,11.790142 2.466202,-0.470736 3.625384,-2.713841 4.699375,-6.338121 0.648262,-2.187614 1.11093,-5.96035 0.616738,-8.549449 -0.380739,-1.994708 -0.936176,-3.758996 -1.628443,-5.243497 z" /><path
         id="path14475"
         style="fill:#3579bc;stroke-width:0.224145"
         d="m 74.005256,41.343158 c 2.905216,0.338532 5.804819,0.840317 7.789442,1.428751 0.951568,0.282129 2.003328,0.63022 3.076329,1.003855 -0.610182,1.378831 -1.692138,3.057504 -2.746127,5.908319 -2.95247,7.985808 0.836512,12.795762 -4.431974,11.790142 -2.466202,-0.470736 -3.625384,-2.713841 -4.699375,-6.338121 -0.648262,-2.187614 -1.11093,-5.96035 -0.616738,-8.549449 0.380739,-1.994708 0.936176,-3.758996 1.628443,-5.243497 z" /><path
         id="path14476"
         style="fill:#ffffff;stroke-width:4.80819"
         d="m 86.492848,77.910863 c -0.188335,0.577144 0.866427,2.734314 2.345933,0.804431 0.800611,-1.044324 0.49054,-1.121406 1.033459,-1.449061 4.386679,-2.647386 -2.098865,-3.279483 -3.379392,0.64463 z"
         sodipodi:nodetypes="ssss" /><path
         id="path14477"
         style="fill:#ffffff;stroke-width:4.80819"
         d="m 40.37865,79.284033 c 0.06094,0.604029 1.4526,2.78253 2.071413,0.301835 0.318491,-1.276776 0.193375,-1.277203 0.722594,-1.626553 4.684213,-3.092155 -3.256479,-3.258983 -2.794007,1.324718 z"
         sodipodi:nodetypes="ssss" /></g><g
       id="g14429"
       inkscape:export-filename="blencat.png"
       inkscape:export-xdpi="43.787205"
       inkscape:export-ydpi="43.787205" /></g></svg>
