<?xml version="1.0" encoding="UTF-8" standalone="no"?>
<!-- Created with Inkscape (http://www.inkscape.org/) -->

<svg
   width="512"
   height="512"
   viewBox="0 0 135.46669 135.46669"
   version="1.1"
   id="svg1"
   xml:space="preserve"
   inkscape:export-filename="blencat72.png"
   inkscape:export-xdpi="13.5"
   inkscape:export-ydpi="13.5"
   inkscape:version="1.4 (e7c3feb100, 2024-10-09)"
   sodipodi:docname="blencat.svg"
   xmlns:inkscape="http://www.inkscape.org/namespaces/inkscape"
   xmlns:sodipodi="http://sodipodi.sourceforge.net/DTD/sodipodi-0.dtd"
   xmlns="http://www.w3.org/2000/svg"
   xmlns:svg="http://www.w3.org/2000/svg"><sodipodi:namedview
     id="namedview1"
     pagecolor="#ffffff"
     bordercolor="#000000"
     borderopacity="0.25"
     inkscape:showpageshadow="2"
     inkscape:pageopacity="0.0"
     inkscape:pagecheckerboard="0"
     inkscape:deskcolor="#d1d1d1"
     inkscape:document-units="mm"
     inkscape:zoom="0.96191406"
     inkscape:cx="515.63858"
     inkscape:cy="306.6802"
     inkscape:window-width="2560"
     inkscape:window-height="1029"
     inkscape:window-x="0"
     inkscape:window-y="0"
     inkscape:window-maximized="1"
     inkscape:current-layer="g14459" /><defs
     id="defs1" /><g
     inkscape:label="Layer 1"
     inkscape:groupmode="layer"
     id="layer1"><g
       id="g14459"><path
         style="fill:#ffffff;stroke-width:13.4142"
         d="m 71.96362,120.9711 c 5.68511,-0.27996 12.840192,-1.25274 15.900194,-2.16177 3.059996,-0.90907 7.958472,-3.17187 10.885501,-5.02852 2.927035,-1.85665 6.232915,-4.76618 7.346425,-6.4656 1.22309,-1.86662 2.59936,-7.627492 3.47654,-14.551732 0.79853,-6.304035 1.77662,-15.172173 2.1734,-19.706976 0.55601,-6.354354 0.28049,-9.399823 -1.20164,-13.280591 -1.0577,-2.769529 -3.97659,-7.089032 -6.48646,-9.598892 -2.50985,-2.509861 -7.604998,-6.083298 -11.32253,-7.940963 -3.71752,-1.85768 -9.682234,-3.98509 -13.254906,-4.727587 -3.669079,-0.762592 -10.44952,-1.093115 -15.581582,-0.759775 -5.262782,0.341926 -11.87839,1.646998 -15.722631,3.101677 -3.650259,1.381264 -9.272111,4.652883 -12.493012,7.270284 -3.220901,2.617387 -7.54475,7.545756 -9.608563,10.95193 -3.398531,5.609043 -3.703783,6.835655 -3.237039,13.007417 0.283441,3.747903 1.144089,11.414061 1.912678,17.035915 0.768493,5.621855 1.855317,12.114853 2.415103,14.428893 0.55977,2.31403 2.305494,5.73769 3.879371,7.60813 1.573877,1.87044 5.521274,4.69702 8.77202,6.28127 3.250735,1.58427 9.487971,3.36768 13.860526,3.96315 4.372555,0.59545 12.601535,0.85368 18.286645,0.57372 z"
         id="path14465" /><path
         id="path14461-2"
         style="fill:#e67e1b;stroke-width:13.4142"
         d="m 21.551374,8.589816 c -2.156021,-0.075511 -4.134795,0.6924934 -5.505121,2.926706 -1.289429,3.136299 -2.137474,6.536552 -2.655117,10.027599 -2.373097,16.002383 2.197219,33.908093 3.03814,36.997968 -6.9433735,17.411186 -7.0664197,53.116731 23.754223,63.963511 4.78272,2.127 15.010736,4.93116 27.477851,4.92383 1.447619,0 16.668194,-0.11606 27.478815,-4.92383 30.820645,-10.84678 30.697595,-46.552325 23.754225,-63.963511 0.84092,-3.089875 5.41124,-20.995585 3.03814,-36.997968 -0.51764,-3.491047 -1.36569,-6.8913 -2.65512,-10.027599 -1.37032,-2.2342126 -3.3491,-3.0022169 -5.50512,-2.926706 -3.59337,0.1258515 -7.67955,2.594602 -10.26301,4.522478 C 96.853461,17.722882 92.265131,24.592253 86.216292,29.823029 82.26592,30.048531 76.319364,28.951983 67.662314,28.896826 60.949533,28.859324 52.900649,30.039563 49.107373,29.823029 43.058531,24.592253 38.470203,17.722882 31.814384,13.112294 29.230923,11.184418 25.144738,8.7156675 21.551374,8.589816 Z"
         sodipodi:nodetypes="sccccsccccsccsccs" /><path
         id="path14471"
         style="fill:#ffffff;stroke-width:14.8137"
         d="m 67.761554,36.671832 c -4.531082,-0.0081 -11.303245,0.894722 -15.049991,2.00565 -3.746762,1.110822 -8.915055,3.086304 -11.482703,4.394045 -2.567634,1.30774 -6.689011,4.15844 -9.163188,6.3308 -2.474206,2.172361 -5.655307,6.214715 -7.065705,8.979467 -2.169919,4.253454 -2.43419,6.388617 -1.745363,13.909395 0.447628,4.888549 1.089896,11.150083 1.431579,13.909364 0.341927,2.75929 1.035972,8.440601 1.538692,12.630971 0.502895,4.190376 1.871724,9.092306 3.046747,10.885586 1.17494,1.79331 5.683193,4.97833 10.012904,7.08102 4.329711,2.10266 11.538356,4.40232 16.022195,5.10597 3.76719,0.59102 8.848585,1.01934 12.454916,1.10224 3.606316,-0.0832 8.687695,-0.51122 12.454891,-1.10224 4.483834,-0.70371 11.692485,-3.00331 16.022191,-5.10597 4.329721,-2.10269 8.837911,-5.28771 10.012921,-7.08102 1.17507,-1.79328 2.54382,-6.69521 3.04673,-10.885586 0.50291,-4.19037 1.19681,-9.871681 1.5387,-12.630971 0.3418,-2.759281 0.98379,-9.020815 1.43143,-13.909364 0.68883,-7.520778 0.42457,-9.655941 -1.74535,-13.909395 -1.41041,-2.764752 -4.59149,-6.807106 -7.0657,-8.979467 -2.47417,-2.17236 -6.595551,-5.02306 -9.163188,-6.3308 -2.567644,-1.307741 -7.735947,-3.283183 -11.482712,-4.394045 -3.746747,-1.110876 -10.518896,-2.01382 -15.049996,-2.00565 z"
         sodipodi:nodetypes="csssssccssccsssscsssssc" /><path
         style="fill:#ffffff;stroke-width:13.4142"
         d="m 37.963089,31.389948 c -0.447897,-1.729468 -1.624662,-3.14817 -2.611754,-4.601132 -2.328902,-3.076056 -5.021744,-5.883963 -7.974001,-8.364969 -1.196536,-0.908805 -3.041593,-2.891155 -4.597415,-2.981365 -1.578156,0.0483 -2.290445,2.357918 -2.512825,3.869031 -0.838917,3.158632 -0.683447,6.459628 -0.876477,9.693917 -0.08182,5.039746 0.0034,10.204739 1.586916,15.038365 0.389947,1.137114 1.566619,2.40944 2.864138,1.834634 3.156836,-0.910013 5.764457,-3.075775 8.15465,-5.245667 2.253302,-2.201027 4.496904,-4.587731 5.71182,-7.540283 0.19209,-0.541393 0.343534,-1.124772 0.254868,-1.702531 z"
         id="path14469"
         sodipodi:nodetypes="cccccccccccc" /><path
         id="path14460-0"
         style="fill:#1e5688;stroke-width:12.7361"
         d="m 67.761554,42.725873 c -3.895611,-0.0071 -9.718004,0.769256 -12.939294,1.724357 -3.221287,0.955076 -7.664752,2.653466 -9.872289,3.777804 -2.207539,1.124337 -5.75091,3.575234 -7.878096,5.442922 -2.127199,1.867704 -4.862161,5.34313 -6.07476,7.720148 -1.8656,3.656906 -2.092812,5.492632 -1.500586,11.958643 0.384882,4.202962 0.93699,9.586327 1.230811,11.958633 0.293948,2.372306 0.890631,7.256847 1.322893,10.859525 0.432388,3.602698 1.609225,7.817155 2.619447,9.358935 1.010222,1.54181 4.886156,4.28013 8.608634,6.08793 3.722489,1.80778 9.920153,3.78491 13.775149,4.38987 3.238852,0.50817 7.607607,0.87637 10.708158,0.94769 3.100552,-0.0713 7.46929,-0.43952 10.708143,-0.94769 3.854998,-0.60496 10.052661,-2.58209 13.775153,-4.38987 3.722474,-1.8078 7.598428,-4.54612 8.608643,-6.08793 1.01022,-1.54178 2.18706,-5.756237 2.61945,-9.358935 0.43238,-3.602678 1.02895,-8.487219 1.32288,-10.859525 0.29383,-2.372306 0.84581,-7.755671 1.23069,-11.958633 0.59223,-6.466011 0.36502,-8.301737 -1.50058,-11.958643 -1.21261,-2.377018 -3.94755,-5.852444 -6.074741,-7.720148 C 96.324064,51.803268 92.780697,49.352371 90.573151,48.228034 88.36562,47.103696 83.92214,45.405306 80.700855,44.45023 77.479563,43.495155 71.657182,42.718843 67.761554,42.725873 Z"
         sodipodi:nodetypes="csssssccssccsssscsssssc" /><path
         id="path14459-1"
         style="fill:#000000;stroke-width:12.7361"
         d="m 67.774727,84.814765 c -1.74959,-0.0068 -3.496679,0.207086 -5.067787,1.000421 -1.163055,0.568661 -1.18789,2.098209 -0.493649,3.040671 0.978255,1.655097 2.883922,2.617762 3.481626,4.528091 0.896746,2.136836 -0.738688,4.607644 -2.889298,5.107289 -2.217256,0.640481 -4.738559,0.287815 -6.548618,-1.19784 -1.136819,-0.726209 -1.920047,-1.957399 -3.178877,-2.481233 -1.485086,0.127361 -0.464866,2.307809 0.03312,3.106476 0.801478,0.992278 1.907018,1.73269 3.020913,2.34962 1.990362,1.02092 4.356921,1.50253 6.555214,0.96743 1.899464,-0.70532 3.322516,-2.218027 5.048033,-3.224952 0.01174,5.42e-4 0.02167,0.0056 0.03314,0.0075 v 0.0075 c 0.01398,-5.51e-4 0.02546,-0.0065 0.03951,-0.0075 1.725519,1.006916 3.148575,2.519632 5.048041,3.224962 2.198297,0.53504 4.564841,0.0534 6.555204,-0.96743 1.113896,-0.61694 2.21945,-1.357343 3.020927,-2.349621 0.497723,-0.798672 1.517996,-2.979119 0.03314,-3.10648 -1.258831,0.523833 -2.042073,1.755024 -3.178891,2.481232 -1.810062,1.485661 -4.331363,1.838345 -6.548618,1.197827 -2.150558,-0.499636 -3.786041,-2.97043 -2.8893,-5.107259 0.597704,-1.910328 2.503386,-2.87301 3.481643,-4.528098 0.69424,-0.942471 0.669405,-2.472011 -0.493652,-3.040671 -1.569142,-0.792307 -3.3138,-1.007034 -5.061184,-1.000414 z" /><ellipse
         style="fill:#000000;stroke-width:3.36974"
         id="path14464"
         cx="104.15729"
         cy="59.145832"
         rx="6.068615"
         ry="7.4833837"
         transform="rotate(12.486488)" /><ellipse
         style="fill:#000000;stroke-width:3.36974"
         id="path14464-0"
         cx="-27.905617"
         cy="88.923782"
         rx="6.068615"
         ry="7.4833837"
         transform="matrix(-0.97634702,0.21620937,0.21620937,0.97634702,0,0)" /><path
         style="fill:#ffffff;stroke-width:13.4142"
         d="m 97.143993,31.389948 c 0.447892,-1.729468 1.624645,-3.14817 2.611743,-4.601132 2.328904,-3.076056 5.021744,-5.883963 7.974004,-8.364969 1.19653,-0.908805 3.0416,-2.891155 4.59741,-2.981365 1.57815,0.0483 2.29045,2.357918 2.51282,3.869031 0.83893,3.158632 0.68345,6.459628 0.87648,9.693917 0.0819,5.039746 -0.004,10.204739 -1.58691,15.038365 -0.38994,1.137114 -1.56662,2.40944 -2.86414,1.834634 -3.15684,-0.910013 -5.76445,-3.075775 -8.15465,-5.245667 -2.25329,-2.201027 -4.496904,-4.587731 -5.71181,-7.540283 -0.192093,-0.541393 -0.34355,-1.124772 -0.254875,-1.702531 z"
         id="path14472"
         sodipodi:nodetypes="cccccccccccc" /><path
         id="path14474"
         style="fill:#3579bc;stroke-width:0.209239"
         d="m 62.09377,43.116409 c -2.712009,0.316018 -5.418778,0.784433 -7.271416,1.333734 -0.888285,0.263366 -1.870099,0.588308 -2.871742,0.937095 0.569603,1.287133 1.579605,2.854169 2.5635,5.515394 2.75612,7.454723 -0.780881,11.944797 4.137231,11.006054 2.302191,-0.43943 3.384283,-2.53336 4.38685,-5.916612 0.60515,-2.04213 1.037049,-5.563965 0.575722,-7.98088 -0.355418,-1.862052 -0.873917,-3.509009 -1.520145,-4.894785 z" /><path
         id="path14475"
         style="fill:#3579bc;stroke-width:0.209239"
         d="m 73.601069,43.116409 c 2.712008,0.316018 5.418777,0.784433 7.271415,1.333734 0.888286,0.263366 1.8701,0.588308 2.871742,0.937095 -0.569602,1.287133 -1.579604,2.854169 -2.563499,5.515394 -2.75612,7.454723 0.780881,11.944797 -4.137232,11.006054 -2.30219,-0.43943 -3.384282,-2.53336 -4.386849,-5.916612 -0.60515,-2.04213 -1.037049,-5.563965 -0.575723,-7.98088 0.355419,-1.862052 0.873917,-3.509009 1.520146,-4.894785 z" /><path
         id="path14476"
         style="fill:#ffffff;stroke-width:4.48843"
         d="m 85.139846,77.774107 c -0.384506,1.084906 1.005291,2.481666 2.241787,0.577961 0.669111,-1.030158 0.389279,-1.060117 0.856365,-1.423771 1.426112,-1.110314 0.886399,-1.726444 0.287978,-1.893528 -0.901508,-0.251709 -2.619078,0.575056 -3.38613,2.739338 z"
         sodipodi:nodetypes="sssss" /><path
         id="path14477"
         style="fill:#ffffff;stroke-width:4.48843"
         d="m 42.210755,78.534077 c 0.05689,0.563859 1.355997,2.597482 1.933656,0.281762 0.297311,-1.191866 0.180515,-1.192264 0.674539,-1.518381 4.372696,-2.886516 -3.039911,-3.042249 -2.608195,1.236619 z"
         sodipodi:nodetypes="ssss" /><path
         id="path14490"
         style="fill:#f5c799;fill-opacity:1;stroke:none;stroke-width:0.532842;stroke-dasharray:none;stroke-opacity:1"
         d="m 133.4574,88.86105 c 1.05066,3.396424 -2.1276,-2.981386 -9.63684,-2.27728 -7.10584,0.666282 -11.28253,5.841688 -11.95669,1.789147 -0.19837,-1.192389 4.24019,-3.831215 11.3766,-3.924684 7.1364,-0.09346 9.8123,3.104823 10.21693,4.412817 z"
         sodipodi:nodetypes="sssss" /><path
         id="path14491"
         style="fill:#f5c799;fill-opacity:1;stroke:none;stroke-width:0.532842;stroke-dasharray:none;stroke-opacity:1"
         d="m 119.83874,96.673478 c -4.01554,-0.175232 -9.35557,1.950727 -7.92212,-1.288951 0.39078,-0.883199 3.37259,-1.932548 7.59241,-1.100448 5.92348,1.168042 10.45767,4.361814 11.37185,7.018731 1.49531,4.34758 -3.71667,-4.309659 -11.04214,-4.629332 z"
         sodipodi:nodetypes="sssss" /><path
         id="path14492"
         style="fill:#f5c799;fill-opacity:1;stroke:none;stroke-width:0.532842;stroke-dasharray:none;stroke-opacity:1"
         d="m 125.26571,116.45602 c -0.76312,1.52546 -0.82747,-8.80924 -7.04805,-10.87658 -5.61245,-1.86524 -8.50116,0.0465 -8.32801,-3.42029 0.0509,-1.02004 5.5391,-1.81207 10.29484,1.70384 4.75575,3.51591 5.84435,11.06756 5.08122,12.59303 z"
         sodipodi:nodetypes="zsssz" /><path
         id="path14501"
         style="fill:#f5c799;fill-opacity:1;stroke:none;stroke-width:0.532842;stroke-dasharray:none;stroke-opacity:1"
         d="m 2.2212626,88.86105 c -1.05066,3.396424 2.1276,-2.981386 9.6368404,-2.27728 7.10584,0.666282 11.28253,5.841688 11.95669,1.789147 0.19837,-1.192389 -4.24019,-3.831215 -11.3766,-3.924684 -7.1364004,-0.09346 -9.8123004,3.104823 -10.2169304,4.412817 z"
         sodipodi:nodetypes="sssss" /><path
         id="path14481"
         style="fill:#1a1a1a;stroke-width:0.255981"
         d="m 14.066018,91.373279 c 0.01672,0.920698 5.953629,-1.221056 15.693729,-1.450229 9.7401,-0.229173 14.203048,4.138678 15.644037,1.2997 0.423991,-0.835318 -5.95368,-4.276464 -15.693789,-4.047291 -9.740121,0.229175 -15.660662,3.277118 -15.643977,4.19782 z"
         sodipodi:nodetypes="sssss" /><path
         id="path14502"
         style="fill:#f5c799;fill-opacity:1;stroke:none;stroke-width:0.532842;stroke-dasharray:none;stroke-opacity:1"
         d="m 15.839923,96.673478 c 4.01554,-0.175232 9.35557,1.950727 7.92212,-1.288951 -0.39078,-0.883199 -3.37259,-1.932548 -7.59241,-1.100448 -5.92348,1.168042 -10.4576704,4.361814 -11.3718504,7.018731 -1.49531,4.34758 3.71667,-4.309659 11.0421404,-4.629332 z"
         sodipodi:nodetypes="sssss" /><path
         id="path14482"
         style="fill:#1a1a1a;stroke-width:0.207441"
         d="m 19.730065,100.7565 c 0.16541,0.72894 4.543,-1.823001 12.267386,-3.400621 7.724375,-1.577618 12.002424,1.252537 12.681937,-1.209079 0.199934,-0.724286 -5.45098,-2.543967 -13.175366,-0.966346 -7.724394,1.577623 -11.939298,4.847066 -11.773957,5.576046 z"
         sodipodi:nodetypes="sssss" /><path
         id="path14503"
         style="fill:#f5c799;fill-opacity:1;stroke:none;stroke-width:0.532842;stroke-dasharray:none;stroke-opacity:1"
         d="m 10.412953,116.45602 c 0.76312,1.52546 0.82747,-8.80924 7.04805,-10.87658 5.61245,-1.86524 8.50116,0.0465 8.32801,-3.42029 -0.0509,-1.02004 -5.5391,-1.81207 -10.29484,1.70384 -4.75575,3.51591 -5.8443504,11.06756 -5.08122,12.59303 z"
         sodipodi:nodetypes="zsssz" /><path
         id="path14483"
         style="fill:#1a1a1a;stroke-width:0.196598"
         d="m 22.433947,108.29844 c 0.281311,0.65482 3.931954,-2.38435 10.881716,-5.01921 6.949761,-2.63488 11.442022,-0.64038 11.649985,-3.03815 0.0612,-0.705495 -5.539452,-1.55091 -12.489223,1.08397 -6.94977,2.63489 -10.323699,6.31856 -10.042478,6.97339 z"
         sodipodi:nodetypes="sssss" /><path
         id="path14496"
         style="fill:#1a1a1a;stroke-width:0.255981"
         d="m 121.29834,91.373279 c -0.0167,0.920698 -5.95363,-1.221056 -15.69373,-1.450229 -9.740099,-0.229173 -14.203047,4.138678 -15.644036,1.2997 -0.423991,-0.835318 5.95368,-4.276464 15.693796,-4.047291 9.74012,0.229175 15.66066,3.277118 15.64397,4.19782 z"
         sodipodi:nodetypes="sssss" /><path
         id="path14497"
         style="fill:#1a1a1a;stroke-width:0.207441"
         d="m 115.6343,100.7565 c -0.16541,0.72894 -4.543,-1.823001 -12.26739,-3.400621 -7.724378,-1.577618 -12.002427,1.252537 -12.68194,-1.209079 -0.199934,-0.724286 5.45098,-2.543967 13.17537,-0.966346 7.72439,1.577623 11.9393,4.847066 11.77396,5.576046 z"
         sodipodi:nodetypes="sssss" /><path
         id="path14498"
         style="fill:#1a1a1a;stroke-width:0.196598"
         d="m 112.93041,108.29844 c -0.28131,0.65482 -3.93195,-2.38435 -10.88171,-5.01921 -6.949766,-2.63488 -11.442027,-0.64038 -11.64999,-3.03815 -0.0612,-0.705495 5.539452,-1.55091 12.48923,1.08397 6.94977,2.63489 10.32369,6.31856 10.04247,6.97339 z"
         sodipodi:nodetypes="sssss" /></g><g
       id="g14429"
       inkscape:export-filename="blencat.png"
       inkscape:export-xdpi="43.787205"
       inkscape:export-ydpi="43.787205" /></g></svg>
