<?xml version="1.0" encoding="UTF-8" standalone="no"?>
<!-- Created with Inkscape (http://www.inkscape.org/) -->

<svg
   width="512"
   height="512"
   viewBox="0 0 135.46669 135.46669"
   version="1.1"
   id="svg1"
   xml:space="preserve"
   inkscape:export-filename="blencat72.png"
   inkscape:export-xdpi="13.5"
   inkscape:export-ydpi="13.5"
   inkscape:version="1.4 (e7c3feb100, 2024-10-09)"
   sodipodi:docname="blencat.svg"
   xmlns:inkscape="http://www.inkscape.org/namespaces/inkscape"
   xmlns:sodipodi="http://sodipodi.sourceforge.net/DTD/sodipodi-0.dtd"
   xmlns="http://www.w3.org/2000/svg"
   xmlns:svg="http://www.w3.org/2000/svg"><sodipodi:namedview
     id="namedview1"
     pagecolor="#ffffff"
     bordercolor="#000000"
     borderopacity="0.25"
     inkscape:showpageshadow="2"
     inkscape:pageopacity="0.0"
     inkscape:pagecheckerboard="0"
     inkscape:deskcolor="#d1d1d1"
     inkscape:document-units="mm"
     inkscape:zoom="1"
     inkscape:cx="-397"
     inkscape:cy="365"
     inkscape:window-width="2560"
     inkscape:window-height="1029"
     inkscape:window-x="0"
     inkscape:window-y="0"
     inkscape:window-maximized="1"
     inkscape:current-layer="g14459" /><defs
     id="defs1" /><g
     inkscape:label="Layer 1"
     inkscape:groupmode="layer"
     id="layer1"><g
       id="g14459"><path
         style="fill:#ffffff;stroke-width:14.3698"
         d="m 72.251153,124.74433 c 6.090126,-0.2999 13.754946,-1.34199 17.032947,-2.31578 3.277995,-0.97383 8.525445,-3.39783 11.661,-5.38675 3.13556,-1.98893 6.67696,-5.10573 7.8698,-6.92622 1.31022,-1.99961 2.78454,-8.17089 3.72421,-15.588423 0.85542,-6.753143 1.90319,-16.253061 2.32824,-21.11093 0.59562,-6.807047 0.30047,-10.06948 -1.28725,-14.22672 -1.13305,-2.966834 -4.25989,-7.594065 -6.94857,-10.282731 C 103.94288,46.218109 98.484745,42.390095 94.50237,40.400087 90.520009,38.410064 84.13036,36.131094 80.303165,35.3357 76.372696,34.51878 69.109206,34.16471 63.611528,34.521798 c -5.63771,0.366285 -12.724624,1.764332 -16.842734,3.322645 -3.910309,1.479667 -9.93267,4.984361 -13.383032,7.78823 -3.450363,2.803853 -8.082249,8.083326 -10.293092,11.732161 -3.640647,6.008639 -3.967645,7.322637 -3.46765,13.934085 0.303634,4.014909 1.225596,12.227215 2.04894,18.249578 0.823242,6.022364 1.987493,12.977933 2.587158,15.456833 0.599649,2.47888 2.469741,6.14645 4.155744,8.15014 1.686002,2.00369 5.914617,5.03164 9.396951,6.72876 3.482322,1.69713 10.163908,3.6076 14.84797,4.24549 4.684063,0.63787 13.499287,0.91449 19.589413,0.61459 z"
         id="path14465" /><path
         id="path14461-2"
         style="fill:#e67e1b;stroke-width:14.3698"
         d="M 18.247465,4.35684 C 15.937845,4.2759496 13.818101,5.0986676 12.350151,7.4920492 10.968861,10.851782 10.0604,14.494274 9.5058797,18.234029 6.9637197,35.376445 11.859631,54.557784 12.760461,57.867786 5.3224312,76.519371 5.190619,114.76863 38.20697,126.38815 c 5.123447,2.27853 16.080122,5.28246 29.435413,5.27461 1.550749,0 17.85566,-0.12433 29.436446,-5.27461 33.016351,-11.61952 32.884541,-49.868779 25.446511,-68.520364 0.90083,-3.310002 5.79674,-22.491341 3.25458,-39.633757 C 125.2254,14.494274 124.31694,10.851782 122.93565,7.4920492 121.4677,5.0986676 119.34795,4.2759496 117.03833,4.35684 113.18897,4.4916573 108.81168,7.1362852 106.04417,9.2015055 98.914183,14.140559 93.998973,21.499314 87.519206,27.102738 83.287404,27.344305 76.917207,26.169638 67.643416,26.110551 60.452406,26.070378 51.830108,27.334698 47.766593,27.102738 41.286823,21.499314 36.371616,14.140559 29.241626,9.2015055 26.474116,7.1362852 22.096825,4.4916573 18.247465,4.35684 Z"
         sodipodi:nodetypes="sccccsccccsccsccs" /><path
         id="path14471"
         style="fill:#ffffff;stroke-width:15.869"
         d="m 67.749726,34.43946 c -4.853883,-0.0087 -12.108505,0.958463 -16.122175,2.148535 -4.013687,1.189959 -9.550177,3.306177 -12.300748,4.707084 -2.750556,1.400905 -7.165545,4.454693 -9.815986,6.781815 -2.650472,2.327123 -6.0582,6.657461 -7.569077,9.619178 -2.324507,4.556476 -2.607605,6.843751 -1.869705,14.90032 0.479518,5.236817 1.167542,11.944432 1.533567,14.900288 0.366286,2.955866 1.109776,9.041922 1.648311,13.53082 0.538722,4.4889 2.005068,9.74006 3.263801,11.66109 1.258645,1.92107 6.088072,5.33299 10.726238,7.58548 4.638166,2.25246 12.360366,4.71595 17.16364,5.46973 4.03557,0.63313 9.478971,1.09196 13.342222,1.18077 3.863236,-0.0891 9.30662,-0.54764 13.342196,-1.18077 4.803269,-0.75384 12.525475,-3.21727 17.163636,-5.46973 4.638174,-2.25249 9.467534,-5.66441 10.726254,-7.58548 1.25879,-1.92103 2.72505,-7.17219 3.26379,-11.66109 0.53873,-4.488898 1.28207,-10.574954 1.64831,-13.53082 0.36615,-2.955856 1.05388,-9.663471 1.53341,-14.900288 0.7379,-8.056569 0.45482,-10.343844 -1.86969,-14.90032 -1.51089,-2.961717 -4.91859,-7.292055 -7.56907,-9.619178 -2.65043,-2.327122 -7.065428,-5.38091 -9.815987,-6.781815 C 93.422096,39.894172 87.885595,37.777997 83.871905,36.587995 79.858235,35.397979 72.603628,34.430708 67.749726,34.43946 Z"
         sodipodi:nodetypes="csssssccssccsssscsssssc" /><path
         style="fill:#ffffff;stroke-width:14.3698"
         d="m 35.828374,28.781287 c -0.479806,-1.852678 -1.740405,-3.37245 -2.797819,-4.928924 -2.494816,-3.295198 -5.3795,-6.303145 -8.54208,-8.960901 -1.28178,-0.97355 -3.258281,-3.097125 -4.924942,-3.193762 -1.690586,0.05174 -2.45362,2.5259 -2.691842,4.144666 -0.898683,3.383658 -0.732137,6.919822 -0.938919,10.384526 -0.08765,5.398785 0.0036,10.93174 1.69997,16.10972 0.417728,1.218124 1.678228,2.581093 3.068184,1.965336 3.381733,-0.974843 6.175125,-3.294897 8.735599,-5.619376 2.41383,-2.357831 4.81727,-4.914567 6.118738,-8.077463 0.205775,-0.579963 0.368008,-1.204903 0.273025,-1.823822 z"
         id="path14469"
         sodipodi:nodetypes="cccccccccccc" /><path
         id="path14460-0"
         style="fill:#1e5688;stroke-width:14.3698"
         d="m 67.749726,38.808136 c -4.395317,-0.008 -10.964573,0.867932 -14.599071,1.945548 -3.634495,1.077587 -8.647941,2.993836 -11.138648,4.262398 -2.490709,1.26856 -6.488602,4.033844 -8.888651,6.141108 -2.400064,2.107282 -5.485851,6.028515 -6.853995,8.710442 -2.104908,4.125993 -2.361265,6.197195 -1.693072,13.492628 0.434253,4.742093 1.057182,10.816005 1.388692,13.492616 0.331654,2.676611 1.004876,8.187713 1.492586,12.252521 0.487852,4.064833 1.815646,8.819893 2.955454,10.559443 1.139808,1.73958 5.512923,4.82916 9.712899,6.86885 4.199988,2.03967 11.192652,4.27043 15.542143,4.95298 3.654313,0.57336 8.583467,0.98879 12.081738,1.06926 3.498272,-0.0805 8.427407,-0.4959 12.08172,-1.06926 4.349495,-0.68255 11.342157,-2.91331 15.542148,-4.95298 4.199972,-2.03969 8.573111,-5.12927 9.712901,-6.86885 1.13981,-1.73955 2.46761,-6.49461 2.95547,-10.559443 0.48784,-4.064808 1.16093,-9.57591 1.49257,-12.252521 0.33152,-2.676611 0.9543,-8.750523 1.38856,-13.492616 0.66819,-7.295433 0.41183,-9.366635 -1.69308,-13.492628 -1.36814,-2.681927 -4.45391,-6.60316 -6.85397,-8.710442 -2.400054,-2.107264 -6.397944,-4.872548 -8.888661,-6.141108 -2.4907,-1.268562 -7.504163,-3.184811 -11.138656,-4.262398 -3.634499,-1.077587 -10.203741,-1.95348 -14.599077,-1.945548 z"
         sodipodi:nodetypes="csssssccssccsssscsssssc" /><path
         id="path14459-1"
         style="fill:#000000;stroke-width:14.3698"
         d="m 67.764588,86.295942 c -1.974017,-0.0077 -3.945212,0.23365 -5.717853,1.12875 -1.312244,0.641605 -1.340266,2.367354 -0.556971,3.430711 1.10374,1.867402 3.253854,2.953552 3.928228,5.108926 1.011776,2.410938 -0.833442,5.198691 -3.259919,5.762421 -2.501673,0.72264 -5.346394,0.32474 -7.388637,-1.35149 -1.282643,-0.819363 -2.166339,-2.208483 -3.586644,-2.799511 -1.675584,0.143698 -0.524496,2.603841 0.03737,3.504961 0.904288,1.11956 2.15164,1.95495 3.408418,2.65101 2.245674,1.15188 4.915802,1.69526 7.396078,1.09153 2.143116,-0.7958 3.748709,-2.50255 5.695566,-3.63863 0.01325,6.1e-4 0.02445,0.006 0.03739,0.008 v 0.008 c 0.01578,-6.2e-4 0.02872,-0.007 0.04457,-0.008 1.946857,1.13608 3.552455,2.84284 5.695574,3.63864 2.480281,0.60367 5.150392,0.0603 7.396066,-1.09153 1.256781,-0.69607 2.504148,-1.53145 3.408435,-2.65101 0.561567,-0.90112 1.712715,-3.361263 0.03739,-3.504961 -1.420306,0.591028 -2.304018,1.980148 -3.58666,2.799511 -2.042246,1.67623 -4.886965,2.07416 -7.388637,1.35148 -2.426418,-0.56373 -4.271692,-3.351463 -3.259922,-5.762392 0.674374,-2.155374 2.824505,-3.241543 3.928248,-5.108935 0.783292,-1.063367 0.755272,-2.789106 -0.556975,-3.430711 -1.770422,-0.893939 -3.738875,-1.13621 -5.710403,-1.128741 z" /><ellipse
         style="fill:#000000;stroke-width:3.80199"
         id="path14464"
         cx="106.98795"
         cy="59.438511"
         rx="6.8470612"
         ry="8.4433079"
         transform="rotate(12.486488)" /><ellipse
         style="fill:#000000;stroke-width:3.80199"
         id="path14464-0"
         cx="-25.019192"
         cy="89.272476"
         rx="6.8470607"
         ry="8.4433079"
         transform="matrix(-0.97634702,0.21620937,0.21620937,0.97634702,0,0)" /><path
         style="fill:#ffffff;stroke-width:14.3698"
         d="m 99.225413,28.781287 c 0.4798,-1.852678 1.740387,-3.37245 2.797807,-4.928924 2.49482,-3.295198 5.3795,-6.303145 8.54208,-8.960901 1.28178,-0.97355 3.25829,-3.097125 4.92494,-3.193762 1.69058,0.05174 2.45362,2.5259 2.69184,4.144666 0.89869,3.383658 0.73214,6.919822 0.93892,10.384526 0.0877,5.398785 -0.004,10.93174 -1.69996,16.10972 -0.41773,1.218124 -1.67823,2.581093 -3.06819,1.965336 -3.38174,-0.974843 -6.17512,-3.294897 -8.7356,-5.619376 -2.41382,-2.357831 -4.81727,-4.914567 -6.118728,-8.077463 -0.205778,-0.579963 -0.368025,-1.204903 -0.273032,-1.823822 z"
         id="path14472"
         sodipodi:nodetypes="cccccccccccc" /><path
         id="path14474"
         style="fill:#3579bc;stroke-width:0.236078"
         d="M 61.354911 39.248767 C 58.295022 39.605323 55.241045 40.133823 53.150761 40.753585 C 52.148532 41.050734 51.040777 41.417357 49.910649 41.810885 C 50.553317 43.263124 51.692876 45.031169 52.802979 48.033761 C 55.912638 56.444732 51.921932 61.510766 57.470911 60.451607 C 60.068413 59.95581 61.289309 57.593282 62.420479 53.776046 C 63.103254 51.471964 63.590555 47.498369 63.070052 44.771427 C 62.669043 42.670521 62.084034 40.812303 61.354911 39.248767 z " /><path
         id="path14475"
         style="fill:#3579bc;stroke-width:0.236078"
         d="m 74.338299,39.248767 c 3.059889,0.356556 6.113866,0.885056 8.20415,1.504818 1.002229,0.297149 2.109984,0.663772 3.240112,1.0573 -0.642668,1.452239 -1.782227,3.220284 -2.89233,6.222876 -3.109659,8.410971 0.881047,13.477005 -4.667932,12.417846 -2.597502,-0.495797 -3.818398,-2.858325 -4.949568,-6.675561 -0.682775,-2.304082 -1.170076,-6.277677 -0.649573,-9.004619 0.401009,-2.100906 0.986018,-3.959124 1.715141,-5.52266 z" /><path
         id="path14476"
         style="fill:#ffffff;stroke-width:5.06418"
         d="m 87.490727,77.763328 c -0.198362,0.607871 0.912555,2.879888 2.47083,0.847259 0.843235,-1.099924 0.516656,-1.18111 1.08848,-1.526209 4.620225,-2.788332 -2.210608,-3.454082 -3.55931,0.67895 z"
         sodipodi:nodetypes="ssss" /><path
         id="path14477"
         style="fill:#ffffff;stroke-width:5.06418"
         d="m 38.92142,79.209605 c 0.06419,0.636188 1.529937,2.930672 2.181695,0.317905 0.335447,-1.344751 0.20367,-1.345201 0.761065,-1.71315 4.933599,-3.256781 -3.429853,-3.432491 -2.94276,1.395245 z"
         sodipodi:nodetypes="ssss" /></g><g
       id="g14429"
       inkscape:export-filename="blencat.png"
       inkscape:export-xdpi="43.787205"
       inkscape:export-ydpi="43.787205" /></g></svg>
